<svg xmlns="http://www.w3.org/2000/svg" xmlns:xlink="http://www.w3.org/1999/xlink" width="500" zoomAndPan="magnify" viewBox="0 0 375 374.999991" height="500" preserveAspectRatio="xMidYMid meet" version="1.2"><defs><clipPath id="c9c369cbda"><path d="M 30.988281 31.652344 L 92 31.652344 L 92 117.152344 L 30.988281 117.152344 Z M 30.988281 31.652344 "/></clipPath></defs><g id="f0f924300a"><path style=" stroke:none;fill-rule:nonzero;fill:#ffffff;fill-opacity:1;" d="M 11.113281 363.871094 L 363.871094 363.871094 L 363.871094 11.109375 L 11.113281 11.109375 Z M 374.984375 374.984375 L 0 374.984375 L 0 0 L 374.984375 0 L 374.984375 374.984375 "/><path style=" stroke:none;fill-rule:nonzero;fill:#f7931a;fill-opacity:1;" d="M 152.453125 300.820312 C 149.558594 300.820312 147.207031 303.171875 147.207031 306.066406 L 147.207031 340.164062 L 157.695312 340.164062 L 157.695312 306.066406 C 157.695312 303.171875 155.347656 300.820312 152.453125 300.820312 Z M 253.460938 267.351562 C 252.496094 266.859375 251.511719 266.375 250.503906 265.902344 L 250.503906 253.355469 L 341.570312 136.761719 Z M 261.570312 272.027344 C 259.621094 270.753906 257.554688 269.527344 255.371094 268.351562 L 326.53125 194.851562 Z M 279.382812 305.261719 C 279.382812 306.371094 279.300781 307.46875 279.15625 308.5625 C 277.460938 295.097656 265.113281 283.15625 246.480469 274.996094 C 244.578125 274.164062 242.625 273.367188 240.597656 272.613281 C 238.214844 271.734375 235.746094 270.910156 233.203125 270.148438 C 231.585938 269.660156 229.925781 269.210938 228.246094 268.773438 C 225.835938 268.152344 223.375 267.578125 220.851562 267.066406 C 219.222656 266.734375 217.566406 266.429688 215.894531 266.144531 C 213.472656 265.734375 211.007812 265.371094 208.5 265.066406 C 206.863281 264.867188 205.210938 264.691406 203.542969 264.539062 C 201.105469 264.3125 198.644531 264.132812 196.148438 264.011719 C 194.507812 263.929688 192.851562 263.875 191.191406 263.84375 C 189.960938 263.816406 188.730469 263.796875 187.492188 263.796875 C 186.253906 263.796875 185.023438 263.816406 183.796875 263.84375 C 182.132812 263.875 180.476562 263.929688 178.835938 264.011719 C 176.339844 264.132812 173.878906 264.3125 171.445312 264.539062 C 169.773438 264.691406 168.121094 264.867188 166.484375 265.066406 C 163.976562 265.371094 161.515625 265.734375 159.089844 266.144531 C 157.417969 266.429688 155.761719 266.734375 154.132812 267.066406 C 151.613281 267.578125 149.148438 268.152344 146.738281 268.773438 C 145.058594 269.207031 143.402344 269.660156 141.78125 270.148438 C 139.238281 270.910156 136.769531 271.734375 134.386719 272.613281 C 132.359375 273.367188 130.40625 274.164062 128.507812 274.996094 C 109.871094 283.15625 97.523438 295.097656 95.828125 308.5625 C 95.6875 307.46875 95.605469 306.371094 95.605469 305.261719 C 95.605469 290.496094 108.398438 277.296875 128.507812 268.5 L 128.507812 246.546875 C 128.507812 246.019531 128.515625 245.503906 128.527344 244.996094 L 128.507812 245.035156 L 128.507812 239.511719 L 127.550781 246.683594 C 126.671875 244.527344 126.199219 242.292969 126.199219 240.003906 C 126.199219 222.335938 153.640625 208.015625 187.492188 208.015625 C 221.34375 208.015625 248.785156 222.335938 248.785156 240.003906 C 248.785156 242.292969 248.3125 244.527344 247.4375 246.683594 L 246.480469 239.511719 L 246.480469 245.035156 L 246.457031 244.996094 C 246.472656 245.503906 246.480469 246.019531 246.480469 246.546875 L 246.480469 268.5 C 266.585938 277.296875 279.382812 290.496094 279.382812 305.261719 Z M 278.3125 312.726562 C 278.304688 312.648438 278.300781 312.570312 278.292969 312.492188 C 278.417969 312.519531 278.542969 312.539062 278.667969 312.554688 Z M 48.890625 194.460938 L 119.882812 268.207031 C 117.699219 269.375 115.617188 270.59375 113.667969 271.859375 Z M 124.480469 253.355469 L 124.480469 265.902344 C 123.472656 266.375 122.492188 266.859375 121.523438 267.351562 L 33.414062 136.761719 Z M 118.765625 234.574219 L 84.015625 169.015625 L 119.667969 226.277344 C 119.019531 228.410156 118.683594 230.601562 118.683594 232.820312 C 118.683594 233.390625 118.714844 233.980469 118.765625 234.574219 Z M 130.582031 211.308594 C 128.21875 213.207031 126.1875 215.21875 124.507812 217.324219 L 80.871094 109.359375 Z M 139.855469 196.140625 C 139.113281 197.941406 138.484375 199.765625 137.980469 201.609375 L 123.660156 151.433594 Z M 153.941406 176.5 C 152.464844 177.84375 151.050781 179.253906 149.710938 180.742188 C 149.386719 181.097656 149.078125 181.460938 148.769531 181.820312 L 132.992188 92.425781 Z M 176.246094 167.949219 C 176.382812 165.730469 178.21875 163.976562 180.46875 163.976562 L 180.726562 163.976562 L 180.726562 148.777344 L 180.425781 148.777344 C 179.519531 148.777344 178.785156 148.042969 178.785156 147.140625 C 178.785156 146.492188 179.164062 145.9375 179.703125 145.667969 C 180.339844 142.765625 182.898438 140.355469 185.511719 139.492188 C 185.382812 139.238281 185.304688 138.957031 185.304688 138.652344 C 185.304688 138.023438 185.625 137.46875 186.109375 137.140625 C 186.191406 134.871094 186.617188 125.589844 187.128906 125.589844 C 187.644531 125.589844 188.070312 134.871094 188.148438 137.140625 C 188.636719 137.46875 188.953125 138.023438 188.953125 138.652344 C 188.953125 138.886719 188.90625 139.105469 188.828125 139.3125 C 191.652344 139.960938 194.589844 142.527344 195.28125 145.667969 C 195.824219 145.9375 196.199219 146.492188 196.199219 147.140625 C 196.199219 148.042969 195.464844 148.777344 194.558594 148.777344 L 190.28125 148.777344 L 194.261719 149.402344 L 194.261719 163.976562 L 194.515625 163.976562 C 196.488281 163.976562 198.132812 165.332031 198.605469 167.15625 C 195.769531 166.46875 192.953125 166.097656 190.21875 166.097656 C 189.757812 166.097656 189.296875 166.105469 188.832031 166.128906 C 207.839844 166.933594 230.328125 184.65625 233.980469 206.652344 C 222.492188 201.234375 207.273438 197.9375 190.574219 197.9375 C 176.683594 197.9375 163.820312 200.222656 153.273438 204.109375 C 163.207031 200.882812 174.929688 199.011719 187.492188 199.011719 C 223.273438 199.011719 252.277344 214.148438 252.277344 232.820312 C 252.277344 233.605469 252.21875 234.378906 252.117188 235.148438 C 249.902344 217.527344 221.824219 203.585938 187.492188 203.585938 C 153.160156 203.585938 125.085938 217.527344 122.867188 235.148438 C 122.765625 234.378906 122.707031 233.605469 122.707031 232.820312 C 122.707031 223.769531 129.527344 215.546875 140.628906 209.476562 C 142.382812 190 159.191406 173.359375 176.246094 167.949219 Z M 169.402344 166.273438 C 168.863281 166.519531 168.320312 166.773438 167.785156 167.035156 L 166.097656 142.476562 Z M 187.492188 86.695312 L 188.714844 121.894531 C 188.179688 121.664062 187.628906 121.5625 187.128906 121.5625 C 186.855469 121.5625 186.570312 121.59375 186.277344 121.65625 Z M 209.46875 142.535156 L 207.699219 167.285156 C 207.160156 167.011719 206.617188 166.75 206.070312 166.5 Z M 241.992188 92.425781 L 226.21875 181.820312 C 224.628906 179.96875 222.902344 178.191406 221.042969 176.503906 Z M 237.210938 202.472656 C 236.726562 200.554688 236.113281 198.65625 235.375 196.785156 L 251.878906 151.613281 Z M 250.476562 217.320312 C 248.785156 215.195312 246.753906 213.179688 244.414062 211.292969 L 294.113281 109.359375 Z M 255.464844 226.78125 L 291.476562 169.308594 L 256.121094 235.554688 C 256.242188 234.621094 256.304688 233.703125 256.304688 232.820312 C 256.304688 230.761719 256.011719 228.746094 255.464844 226.78125 Z M 346.832031 28.152344 L 28.152344 28.152344 L 28.152344 203.195312 L 111.613281 273.246094 C 108.480469 275.433594 105.6875 277.75 103.253906 280.171875 L 28.152344 207.667969 L 28.152344 232.289062 L 101.542969 281.957031 C 99.945312 283.707031 98.527344 285.503906 97.304688 287.34375 L 28.152344 233.175781 L 28.152344 253.761719 L 95.828125 289.757812 C 93.96875 293.050781 92.703125 296.46875 92.066406 299.964844 L 28.152344 260.039062 L 28.152344 276.386719 L 91.742188 302.191406 C 91.636719 303.210938 91.578125 304.230469 91.578125 305.261719 C 91.578125 306.492188 91.664062 307.777344 91.835938 309.085938 C 91.886719 309.484375 92 309.863281 92.160156 310.214844 L 28.152344 278.894531 L 28.152344 293.640625 L 96.628906 313.285156 C 96.570312 314.003906 96.53125 314.722656 96.53125 315.445312 C 96.53125 319.144531 97.273438 322.84375 98.742188 326.441406 C 98.980469 327.03125 99.347656 327.535156 99.800781 327.9375 L 99.800781 336.140625 L 78.511719 336.140625 C 76.289062 336.140625 74.488281 337.941406 74.488281 340.164062 L 74.488281 342.167969 L 28.152344 335.664062 L 28.152344 346.832031 L 81.140625 346.832031 L 81.882812 344.472656 L 78.511719 344.472656 L 78.511719 340.164062 L 103.828125 340.164062 L 103.828125 324.730469 C 103.828125 323.984375 103.839844 323.25 103.859375 322.527344 L 103.828125 322.582031 L 103.828125 314.746094 L 102.46875 324.921875 C 101.226562 321.867188 100.558594 318.695312 100.558594 315.445312 C 100.558594 290.386719 139.480469 270.078125 187.492188 270.078125 C 235.503906 270.078125 274.425781 290.386719 274.425781 315.445312 C 274.425781 318.695312 273.761719 321.867188 272.515625 324.921875 L 271.15625 314.746094 L 271.15625 322.582031 L 271.128906 322.527344 C 271.148438 323.25 271.15625 323.984375 271.15625 324.730469 L 271.15625 340.164062 L 296.472656 340.164062 L 296.472656 344.472656 L 293.101562 344.472656 L 293.84375 346.832031 L 346.832031 346.832031 L 346.832031 335.660156 L 300.496094 342.167969 L 300.496094 340.164062 C 300.496094 337.941406 298.695312 336.140625 296.472656 336.140625 L 275.183594 336.140625 L 275.183594 327.9375 C 275.636719 327.535156 276.003906 327.03125 276.246094 326.441406 C 277.710938 322.84375 278.453125 319.144531 278.453125 315.445312 C 278.453125 314.722656 278.414062 314.003906 278.359375 313.285156 L 346.832031 293.640625 L 346.832031 279.4375 L 282.597656 310.644531 C 282.878906 310.179688 283.074219 309.652344 283.148438 309.085938 C 283.320312 307.777344 283.40625 306.492188 283.40625 305.261719 C 283.40625 304.335938 283.359375 303.414062 283.277344 302.5 L 346.832031 276.917969 L 346.832031 260.039062 L 282.917969 299.964844 C 282.28125 296.46875 281.015625 293.050781 279.15625 289.757812 L 346.832031 253.761719 L 346.832031 233.878906 L 277.847656 287.605469 C 276.636719 285.75 275.238281 283.941406 273.652344 282.183594 L 346.832031 232.957031 L 346.832031 207.667969 L 271.730469 280.171875 C 269.296875 277.75 266.503906 275.433594 263.371094 273.246094 L 346.832031 203.195312 Z M 134.933594 305.546875 C 132.035156 305.546875 129.691406 307.894531 129.691406 310.789062 L 129.691406 340.164062 L 140.175781 340.164062 L 140.175781 310.789062 C 140.175781 307.894531 137.828125 305.546875 134.933594 305.546875 Z M 117.414062 316.042969 C 114.515625 316.042969 112.167969 318.390625 112.167969 321.285156 L 112.167969 340.164062 L 122.65625 340.164062 L 122.65625 321.285156 C 122.65625 318.390625 120.308594 316.042969 117.414062 316.042969 Z M 257.574219 316.042969 C 254.675781 316.042969 252.328125 318.390625 252.328125 321.285156 L 252.328125 340.164062 L 262.816406 340.164062 L 262.816406 321.285156 C 262.816406 318.390625 260.46875 316.042969 257.574219 316.042969 Z M 28.152344 300.558594 L 28.152344 313.15625 L 95.929688 325.21875 Z M 28.152344 316.324219 L 28.152344 328.535156 L 95.757812 333.269531 Z M 346.832031 313.625 L 346.832031 300.558594 L 277.628906 325.738281 Z M 240.054688 305.546875 C 237.15625 305.546875 234.808594 307.894531 234.808594 310.789062 L 234.808594 340.164062 L 245.296875 340.164062 L 245.296875 310.789062 C 245.296875 307.894531 242.949219 305.546875 240.054688 305.546875 Z M 187.492188 296.089844 C 184.597656 296.089844 182.25 298.433594 182.25 301.332031 L 182.25 340.164062 L 192.734375 340.164062 L 192.734375 301.332031 C 192.734375 298.433594 190.390625 296.089844 187.492188 296.089844 Z M 169.972656 297.609375 C 167.078125 297.609375 164.730469 299.957031 164.730469 302.851562 L 164.730469 340.164062 L 175.21875 340.164062 L 175.21875 302.851562 C 175.21875 299.957031 172.867188 297.609375 169.972656 297.609375 Z M 222.53125 300.820312 C 219.636719 300.820312 217.289062 303.171875 217.289062 306.066406 L 217.289062 340.164062 L 227.777344 340.164062 L 227.777344 306.066406 C 227.777344 303.171875 225.429688 300.820312 222.53125 300.820312 Z M 205.011719 297.609375 C 202.117188 297.609375 199.769531 299.957031 199.769531 302.851562 L 199.769531 340.164062 L 210.257812 340.164062 L 210.257812 302.851562 C 210.257812 299.957031 207.910156 297.609375 205.011719 297.609375 Z M 192.390625 151.132812 C 192.390625 150.628906 191.984375 150.222656 191.484375 150.222656 C 190.980469 150.222656 190.574219 150.628906 190.574219 151.132812 L 190.574219 163.289062 L 192.390625 163.289062 Z M 199.84375 227.425781 C 197.800781 227.425781 196.148438 229.082031 196.148438 231.125 L 196.148438 257.523438 C 198.644531 257.644531 201.105469 257.828125 203.542969 258.050781 L 203.542969 231.125 C 203.542969 229.082031 201.886719 227.425781 199.84375 227.425781 Z M 346.832031 328.535156 L 346.832031 316.796875 L 280.742188 333.164062 Z M 187.492188 226.355469 C 185.453125 226.355469 183.796875 228.007812 183.796875 230.050781 L 183.796875 257.355469 C 185.023438 257.332031 186.253906 257.304688 187.492188 257.304688 C 188.730469 257.304688 189.960938 257.332031 191.191406 257.355469 L 191.191406 230.050781 C 191.191406 228.007812 189.535156 226.355469 187.492188 226.355469 Z M 236.902344 240.421875 C 234.859375 240.421875 233.203125 242.078125 233.203125 244.121094 L 233.203125 263.667969 C 235.75 264.429688 238.214844 265.253906 240.597656 266.136719 L 240.597656 244.121094 C 240.597656 242.078125 238.941406 240.421875 236.902344 240.421875 Z M 212.199219 229.691406 C 210.15625 229.691406 208.5 231.347656 208.5 233.390625 L 208.5 258.578125 C 211.003906 258.886719 213.472656 259.242188 215.894531 259.652344 L 215.894531 233.390625 C 215.894531 231.347656 214.238281 229.691406 212.199219 229.691406 Z M 224.550781 233.023438 C 222.507812 233.023438 220.851562 234.679688 220.851562 236.71875 L 220.851562 260.578125 C 223.371094 261.089844 225.839844 261.65625 228.246094 262.28125 L 228.246094 236.71875 C 228.246094 234.679688 226.589844 233.023438 224.550781 233.023438 Z M 175.140625 227.425781 C 173.097656 227.425781 171.445312 229.082031 171.445312 231.125 L 171.445312 258.050781 C 173.878906 257.828125 176.339844 257.644531 178.835938 257.523438 L 178.835938 231.125 C 178.835938 229.082031 177.183594 227.425781 175.140625 227.425781 Z M 184.410156 151.132812 C 184.410156 150.628906 184.003906 150.222656 183.503906 150.222656 C 183 150.222656 182.59375 150.628906 182.59375 151.132812 L 182.59375 163.289062 L 184.410156 163.289062 Z M 162.789062 229.691406 C 160.746094 229.691406 159.089844 231.347656 159.089844 233.390625 L 159.089844 259.652344 C 161.511719 259.242188 163.980469 258.886719 166.484375 258.578125 L 166.484375 233.390625 C 166.484375 231.347656 164.828125 229.691406 162.789062 229.691406 Z M 150.4375 233.023438 C 148.394531 233.023438 146.738281 234.679688 146.738281 236.71875 L 146.738281 262.28125 C 149.144531 261.65625 151.613281 261.089844 154.132812 260.578125 L 154.132812 236.71875 C 154.132812 234.679688 152.476562 233.023438 150.4375 233.023438 Z M 138.085938 240.421875 C 136.042969 240.421875 134.386719 242.078125 134.386719 244.121094 L 134.386719 266.136719 C 136.769531 265.253906 139.238281 264.429688 141.78125 263.667969 L 141.78125 244.121094 C 141.78125 242.078125 140.125 240.421875 138.085938 240.421875 Z M 188.402344 149.457031 C 188.402344 149.183594 188.28125 148.945312 188.089844 148.777344 L 186.894531 148.777344 C 186.707031 148.945312 186.585938 149.183594 186.585938 149.457031 L 186.585938 163.289062 L 188.402344 163.289062 L 188.402344 149.457031 "/><g clip-rule="nonzero" clip-path="url(#c9c369cbda)"><path style=" stroke:none;fill-rule:evenodd;fill:#ffffff;fill-opacity:1;" d="M 45.484375 45.035156 L 30.988281 45.035156 L 30.988281 53.171875 L 41.039062 53.171875 L 41.039062 95.097656 L 30.988281 95.097656 L 30.988281 103.789062 L 45.484375 103.789062 L 45.484375 117.117188 L 53.410156 117.117188 L 53.410156 103.769531 L 53.847656 103.769531 L 53.847656 103.523438 L 60.175781 103.523438 L 60.175781 117.117188 L 68.097656 117.117188 L 68.097656 103.523438 L 71.953125 103.523438 C 94.90625 103.523438 97.242188 76.414062 78.65625 71.15625 C 92.285156 65.007812 89.175781 45.035156 69.550781 45.035156 L 68.097656 45.035156 L 68.097656 31.6875 L 60.175781 31.6875 L 60.175781 45.035156 L 53.410156 45.035156 L 53.410156 31.6875 L 45.484375 31.6875 Z M 54.734375 93.828125 L 66.214844 93.828125 C 70.917969 93.828125 76.3125 90.800781 76.3125 85.691406 L 76.3125 85.6875 C 76.3125 80.574219 70.917969 77.359375 66.214844 77.359375 L 54.734375 77.359375 Z M 53.847656 53.175781 L 64.316406 53.175781 C 68.609375 53.175781 72.121094 56.6875 72.121094 60.980469 C 72.121094 65.269531 68.609375 68.785156 64.316406 68.785156 L 53.847656 68.785156 Z M 53.847656 53.175781 "/></g></g></svg>